<svg width="20" height="20" viewBox="0 0 20 20" fill="none" xmlns="http://www.w3.org/2000/svg">
<path d="M4.5 19C5.32843 19 6 18.3284 6 17.5C6 16.6716 5.32843 16 4.5 16C3.67157 16 3 16.6716 3 17.5C3 18.3284 3.67157 19 4.5 19Z" stroke="#212121" stroke-width="1.66667" stroke-linecap="round" stroke-linejoin="round"/>
<path d="M15.5 19C16.3284 19 17 18.3284 17 17.5C17 16.6716 16.3284 16 15.5 16C14.6716 16 14 16.6716 14 17.5C14 18.3284 14.6716 19 15.5 19Z" stroke="#212121" stroke-width="1.66667" stroke-linecap="round" stroke-linejoin="round"/>
<path d="M2 0.833344H2.66669L4.90002 11.9917C4.97623 12.3753 5.18495 12.72 5.48965 12.9653C5.79434 13.2105 6.17561 13.3408 6.56669 13.3333H14.6667C15.0578 13.3408 15.439 13.2105 15.7437 12.9653C16.0484 12.72 16.2572 12.3753 16.3334 11.9917L17.6667 5.00001H3.50002" stroke="#212121" stroke-width="1.66667" stroke-linecap="round" stroke-linejoin="round"/>
</svg>
