<svg width="20" height="20" viewBox="0 0 20 20" fill="none" xmlns="http://www.w3.org/2000/svg">
<path d="M17.8666 3.84166C17.441 3.41583 16.9356 3.07803 16.3794 2.84757C15.8232 2.6171 15.227 2.49847 14.6249 2.49847C14.0229 2.49847 13.4267 2.6171 12.8705 2.84757C12.3143 3.07803 11.8089 3.41583 11.3833 3.84166L10.4999 4.725L9.6166 3.84166C8.75686 2.98192 7.5908 2.49892 6.37494 2.49892C5.15908 2.49892 3.99301 2.98192 3.13327 3.84166C2.27353 4.70141 1.79053 5.86747 1.79053 7.08333C1.79053 9.72211 3.41661 11.6667 5.91661 14.1667C8.41661 16.6667 10.4999 17.6917 10.4999 17.6917C10.4999 17.6917 13.5803 15.7217 15.0833 14.1667C16.4735 12.7283 18.0665 10.7544 18.8607 8.83779C19.0912 8.28158 19.2098 7.6854 19.2098 7.08333C19.2098 6.48126 19.0912 5.88508 18.8607 5.32887C18.6302 4.77265 18.2924 4.26729 17.8666 3.84166Z" stroke="#212121" stroke-width="1.66667" stroke-linecap="round" stroke-linejoin="round"/>
</svg>
