<svg width="140" height="40" viewBox="0 0 140 40" fill="none" xmlns="http://www.w3.org/2000/svg">
<rect width="40" height="40" rx="20" fill="#FCD230"/>
<path d="M23.6836 6.95654V12.5763H18.1299V18.2622H12.5763V23.7497H6.95652V18.2622L18.2622 6.95654H23.6836Z" fill="#212121"/>
<path d="M6.95652 23.7498H12.5763L23.6836 34.857H18.1299L6.95652 23.7498Z" fill="#212121"/>
<path d="M12.5763 18.2622H18.1299L29.2372 29.3034H23.6836L12.5763 18.2622Z" fill="#212121"/>
<path d="M18.1299 12.5764H23.6836L34.7909 23.6176H29.2372L18.1299 12.5764Z" fill="#212121"/>
<path d="M51.9722 13.0931C51.4087 13.0931 50.9148 12.9817 50.4904 12.7591C50.0661 12.5365 49.7391 12.2165 49.5096 11.7991C49.28 11.3817 49.1652 10.8878 49.1652 10.3174C49.1652 9.74001 49.28 9.24958 49.5096 8.8461C49.7461 8.43566 50.073 8.12262 50.4904 7.90697C50.9148 7.69131 51.4087 7.58349 51.9722 7.58349C52.327 7.58349 52.6713 7.63566 53.0052 7.74001C53.3461 7.84436 53.6243 7.99045 53.84 8.17827L53.3809 9.26349C53.207 9.10349 53.0052 8.98523 52.7756 8.90871C52.553 8.82523 52.3374 8.78349 52.1287 8.78349C51.7043 8.78349 51.3739 8.91566 51.1374 9.18001C50.9009 9.44436 50.7826 9.82697 50.7826 10.3278C50.7826 10.8287 50.9009 11.2113 51.1374 11.4757C51.3739 11.74 51.7043 11.8722 52.1287 11.8722C52.3304 11.8722 52.5426 11.8339 52.7652 11.7574C52.9948 11.6809 53.2 11.5661 53.3809 11.4131L53.84 12.4878C53.6174 12.6757 53.3356 12.8252 52.9948 12.9365C52.6609 13.0409 52.32 13.0931 51.9722 13.0931ZM54.7519 15.347L54.3867 14.1157C54.7136 14.0531 54.9884 13.98 55.211 13.8965C55.4406 13.8131 55.6284 13.7017 55.7745 13.5626C55.9206 13.4304 56.0389 13.2565 56.1293 13.0409L56.3902 12.4252L56.3484 13.0304L54.0528 7.68784H55.7119L57.2249 11.5174H56.9015L58.4354 7.68784H60.0006L57.611 13.187C57.4371 13.5835 57.2493 13.9104 57.0476 14.1678C56.8528 14.4322 56.6406 14.6409 56.411 14.7939C56.1815 14.947 55.9276 15.0652 55.6493 15.1487C55.378 15.2322 55.0789 15.2983 54.7519 15.347ZM60.5683 12.9783V7.68784H65.7335V12.9783H64.1787V8.88784H62.1231V12.9783H60.5683ZM69.7087 13.0931C68.7904 13.0931 68.0739 12.8461 67.5591 12.3522C67.0443 11.8583 66.787 11.187 66.787 10.3383C66.787 9.78871 66.8948 9.30871 67.1104 8.89827C67.333 8.48784 67.6391 8.16784 68.0287 7.93827C68.4252 7.70175 68.8878 7.58349 69.4165 7.58349C69.9383 7.58349 70.373 7.69479 70.7209 7.9174C71.0756 8.14001 71.34 8.45305 71.5139 8.85653C71.6948 9.25305 71.7852 9.71566 71.7852 10.2444V10.6096H68.0809V9.82697H70.6374L70.46 9.97305C70.46 9.53479 70.3696 9.20436 70.1887 8.98175C70.0148 8.75218 69.7609 8.6374 69.427 8.6374C69.0583 8.6374 68.773 8.77305 68.5713 9.04436C68.3765 9.31566 68.2791 9.70523 68.2791 10.2131V10.38C68.2791 10.8948 68.4043 11.2774 68.6548 11.5278C68.9122 11.7783 69.2809 11.9035 69.7609 11.9035C70.0461 11.9035 70.3139 11.8687 70.5643 11.7991C70.8217 11.7226 71.0652 11.6044 71.2948 11.4444L71.733 12.4878C71.4687 12.6826 71.1626 12.8322 70.8148 12.9365C70.4739 13.0409 70.1052 13.0931 69.7087 13.0931ZM72.8538 15.2322V9.06523C72.8538 8.84262 72.8468 8.61653 72.8329 8.38697C72.819 8.15044 72.7981 7.9174 72.7703 7.68784H74.2834L74.4086 8.72088H74.2938C74.3982 8.37305 74.6173 8.09827 74.9512 7.89653C75.2851 7.68784 75.6677 7.58349 76.099 7.58349C76.5582 7.58349 76.9616 7.69479 77.3095 7.9174C77.6573 8.13305 77.9286 8.4461 78.1234 8.85653C78.3251 9.26697 78.426 9.7574 78.426 10.3278C78.426 10.9052 78.3251 11.3991 78.1234 11.8096C77.9286 12.22 77.6573 12.5365 77.3095 12.7591C76.9616 12.9817 76.5582 13.0931 76.099 13.0931C75.6747 13.0931 75.2955 12.9922 74.9616 12.7904C74.6347 12.5887 74.4155 12.3209 74.3042 11.987H74.4295V15.2322H72.8538ZM75.619 11.9035C75.9877 11.9035 76.2834 11.7748 76.506 11.5174C76.7286 11.26 76.8399 10.8635 76.8399 10.3278C76.8399 9.79218 76.7286 9.39914 76.506 9.14871C76.2834 8.89827 75.9877 8.77305 75.619 8.77305C75.2573 8.77305 74.9616 8.89827 74.7321 9.14871C74.5095 9.39914 74.3982 9.79218 74.3982 10.3278C74.3982 10.8635 74.5095 11.26 74.7321 11.5174C74.9616 11.7748 75.2573 11.9035 75.619 11.9035ZM79.4638 12.9783V7.68784H80.7682L82.5004 10.6304L84.2221 7.68784H85.5264V12.9783H84.1386V9.46175H84.3995L82.8551 12.1226H82.1351L80.5908 9.46175H80.8412V12.9783H79.4638ZM88.8957 13.0931C88.4366 13.0931 88.0331 12.9817 87.6853 12.7591C87.3375 12.5365 87.0662 12.22 86.8714 11.8096C86.6766 11.3991 86.5792 10.9052 86.5792 10.3278C86.5792 9.7574 86.6766 9.26697 86.8714 8.85653C87.0662 8.4461 87.3375 8.13305 87.6853 7.9174C88.0331 7.69479 88.4366 7.58349 88.8957 7.58349C89.3201 7.58349 89.6992 7.68784 90.0331 7.89653C90.374 8.09827 90.5966 8.37305 90.701 8.72088H90.5862L90.7114 7.68784H92.2244C92.2036 7.9174 92.1827 8.15044 92.1618 8.38697C92.1479 8.61653 92.141 8.84262 92.141 9.06523V12.9783H90.5757L90.5653 11.987H90.6905C90.5792 12.3209 90.3566 12.5887 90.0227 12.7904C89.6888 12.9922 89.3131 13.0931 88.8957 13.0931ZM89.3757 11.9035C89.7375 11.9035 90.0296 11.7748 90.2523 11.5174C90.4749 11.26 90.5862 10.8635 90.5862 10.3278C90.5862 9.79218 90.4749 9.39914 90.2523 9.14871C90.0296 8.89827 89.7375 8.77305 89.3757 8.77305C89.014 8.77305 88.7218 8.89827 88.4992 9.14871C88.2766 9.39914 88.1653 9.79218 88.1653 10.3278C88.1653 10.8635 88.2731 11.26 88.4888 11.5174C88.7114 11.7748 89.007 11.9035 89.3757 11.9035ZM93.4918 15.2322V9.06523C93.4918 8.84262 93.4849 8.61653 93.471 8.38697C93.4571 8.15044 93.4362 7.9174 93.4084 7.68784H94.9214L95.0466 8.72088H94.9318C95.0362 8.37305 95.2553 8.09827 95.5892 7.89653C95.9231 7.68784 96.3058 7.58349 96.7371 7.58349C97.1962 7.58349 97.5997 7.69479 97.9475 7.9174C98.2953 8.13305 98.5666 8.4461 98.7614 8.85653C98.9631 9.26697 99.064 9.7574 99.064 10.3278C99.064 10.9052 98.9631 11.3991 98.7614 11.8096C98.5666 12.22 98.2953 12.5365 97.9475 12.7591C97.5997 12.9817 97.1962 13.0931 96.7371 13.0931C96.3127 13.0931 95.9336 12.9922 95.5997 12.7904C95.2727 12.5887 95.0536 12.3209 94.9423 11.987H95.0675V15.2322H93.4918ZM96.2571 11.9035C96.6258 11.9035 96.9214 11.7748 97.144 11.5174C97.3666 11.26 97.4779 10.8635 97.4779 10.3278C97.4779 9.79218 97.3666 9.39914 97.144 9.14871C96.9214 8.89827 96.6258 8.77305 96.2571 8.77305C95.8953 8.77305 95.5997 8.89827 95.3701 9.14871C95.1475 9.39914 95.0362 9.79218 95.0362 10.3278C95.0362 10.8635 95.1475 11.26 95.3701 11.5174C95.5997 11.7748 95.8953 11.9035 96.2571 11.9035ZM100.102 12.9783V7.68784H101.657V9.68088H102.335L103.764 7.68784H105.444L103.524 10.38L103.211 9.87914C103.399 9.90001 103.57 9.95566 103.723 10.0461C103.876 10.1365 104.018 10.2548 104.151 10.4009C104.29 10.547 104.415 10.7209 104.526 10.9226L105.653 12.9783H103.984L103.118 11.4235C103.048 11.2844 102.971 11.1765 102.888 11.1C102.811 11.0165 102.724 10.9609 102.627 10.9331C102.53 10.8983 102.411 10.8809 102.272 10.8809H101.657V12.9783H100.102ZM108.845 13.0931C107.927 13.0931 107.21 12.8461 106.695 12.3522C106.18 11.8583 105.923 11.187 105.923 10.3383C105.923 9.78871 106.031 9.30871 106.247 8.89827C106.469 8.48784 106.775 8.16784 107.165 7.93827C107.561 7.70175 108.024 7.58349 108.553 7.58349C109.074 7.58349 109.509 7.69479 109.857 7.9174C110.212 8.14001 110.476 8.45305 110.65 8.85653C110.831 9.25305 110.921 9.71566 110.921 10.2444V10.6096H107.217V9.82697H109.774L109.596 9.97305C109.596 9.53479 109.506 9.20436 109.325 8.98175C109.151 8.75218 108.897 8.6374 108.563 8.6374C108.194 8.6374 107.909 8.77305 107.707 9.04436C107.513 9.31566 107.415 9.70523 107.415 10.2131V10.38C107.415 10.8948 107.54 11.2774 107.791 11.5278C108.048 11.7783 108.417 11.9035 108.897 11.9035C109.182 11.9035 109.45 11.8687 109.7 11.7991C109.958 11.7226 110.201 11.6044 110.431 11.4444L110.869 12.4878C110.605 12.6826 110.299 12.8322 109.951 12.9365C109.61 13.0409 109.241 13.0931 108.845 13.0931ZM113.096 12.9783V8.91914H111.343V7.68784H116.414V8.91914H114.651V12.9783H113.096Z" fill="#212121"/>
<path d="M50.0748 32.3609L49.0574 29.693C49.5397 29.5423 49.9467 29.3388 50.2783 29.0826C50.6099 28.8264 50.8736 28.4948 51.0696 28.0878C51.2806 27.6809 51.4313 27.1759 51.5217 26.573C51.6122 25.9701 51.6574 25.2542 51.6574 24.4252V20.5591H61.2661V32.0217H57.8748V23.1591H54.7322V24.5382C54.7322 26.1058 54.5664 27.4322 54.2348 28.5174C53.9032 29.6026 53.3983 30.4617 52.72 31.0948C52.0417 31.7278 51.16 32.1498 50.0748 32.3609ZM69.6555 32.2704C67.6659 32.2704 66.1135 31.7354 64.9981 30.6652C63.8827 29.5951 63.3251 28.1406 63.3251 26.3017C63.3251 25.111 63.5587 24.071 64.0259 23.1817C64.5083 22.2925 65.1714 21.5991 66.0155 21.1017C66.8746 20.5893 67.8769 20.333 69.0225 20.333C70.1529 20.333 71.0949 20.5742 71.8485 21.0565C72.6172 21.5388 73.19 22.2171 73.5668 23.0913C73.9587 23.9504 74.1546 24.9527 74.1546 26.0982V26.8896H66.1285V25.1939H71.6677L71.2833 25.5104C71.2833 24.5609 71.0874 23.8449 70.6955 23.3626C70.3187 22.8652 69.7685 22.6165 69.0451 22.6165C68.2462 22.6165 67.6283 22.9104 67.1912 23.4983C66.7691 24.0861 66.5581 24.9301 66.5581 26.0304V26.3922C66.5581 27.5075 66.8294 28.3365 67.372 28.8791C67.9297 29.4217 68.7285 29.693 69.7685 29.693C70.3865 29.693 70.9668 29.6177 71.5094 29.4669C72.0671 29.3011 72.5946 29.0449 73.092 28.6983L74.0416 30.9591C73.4688 31.3811 72.8056 31.7052 72.052 31.9313C71.3135 32.1574 70.5146 32.2704 69.6555 32.2704ZM81.7603 32.2704C80.5395 32.2704 79.4693 32.0293 78.5499 31.5469C77.6305 31.0646 76.9221 30.3713 76.4247 29.4669C75.9273 28.5626 75.6786 27.4925 75.6786 26.2565C75.6786 25.0055 75.9273 23.9429 76.4247 23.0687C76.9371 22.1794 77.6456 21.5011 78.5499 21.0339C79.4693 20.5667 80.5395 20.333 81.7603 20.333C82.529 20.333 83.2751 20.4461 83.9986 20.6722C84.7371 20.8982 85.34 21.2148 85.8073 21.6217L84.8125 23.973C84.4357 23.6264 83.9986 23.3701 83.5012 23.2043C83.0189 23.0235 82.5516 22.933 82.0995 22.933C81.18 22.933 80.4641 23.2194 79.9516 23.7922C79.4392 24.3649 79.1829 25.1939 79.1829 26.2791C79.1829 27.3643 79.4392 28.1933 79.9516 28.7661C80.4641 29.3388 81.18 29.6252 82.0995 29.6252C82.5366 29.6252 82.9963 29.5423 83.4786 29.3765C83.976 29.2107 84.4206 28.962 84.8125 28.6304L85.8073 30.9591C85.325 31.3661 84.7145 31.6901 83.976 31.9313C83.2525 32.1574 82.514 32.2704 81.7603 32.2704ZM90.0666 32.0217V23.2269H86.2683V20.5591H97.2561V23.2269H93.4353V32.0217H90.0666ZM98.4539 32.0217V20.5591H101.823V24.8774H106.344V20.5591H109.713V32.0217H106.344V27.4774H101.823V32.0217H98.4539ZM112.243 32.0217V20.5591H115.317V28.6078H114.571L120.63 20.5591H123.434V32.0217H120.359V23.973H121.105L115.023 32.0217H112.243ZM135.891 34.9609V32.0217H125.943V20.5591H129.312V29.4217H133.494V20.5591H136.863V29.4217H138.739V34.9609H135.891Z" fill="#212121"/>
</svg>
