<svg width="70" height="14" viewBox="0 0 70 14" fill="none" xmlns="http://www.w3.org/2000/svg">
<path d="M6.99997 1.16663L8.80247 4.81829L12.8333 5.40746L9.91664 8.24829L10.605 12.2616L6.99997 10.3658L3.39497 12.2616L4.08331 8.24829L1.16664 5.40746L5.19747 4.81829L6.99997 1.16663Z" fill="#FDB022"/>
<path d="M21 1.16663L22.8025 4.81829L26.8333 5.40746L23.9166 8.24829L24.605 12.2616L21 10.3658L17.395 12.2616L18.0833 8.24829L15.1666 5.40746L19.1975 4.81829L21 1.16663Z" fill="#FDB022"/>
<path d="M35 1.16663L36.8025 4.81829L40.8333 5.40746L37.9166 8.24829L38.605 12.2616L35 10.3658L31.395 12.2616L32.0833 8.24829L29.1666 5.40746L33.1975 4.81829L35 1.16663Z" fill="#FDB022"/>
<path d="M49 1.16663L50.8025 4.81829L54.8333 5.40746L51.9166 8.24829L52.605 12.2616L49 10.3658L45.395 12.2616L46.0833 8.24829L43.1666 5.40746L47.1975 4.81829L49 1.16663Z" fill="#FDB022"/>
<path d="M63 1.16663L64.8025 4.81829L68.8333 5.40746L65.9166 8.24829L66.605 12.2616L63 10.3658L59.395 12.2616L60.0833 8.24829L57.1666 5.40746L61.1975 4.81829L63 1.16663Z" fill="#D6DBE0"/>
<g clip-path="url(#clip0_19_214)">
<path d="M63 1.16663L64.8025 4.81829L68.8333 5.40746L65.9166 8.24829L66.605 12.2616L63 10.3658L59.395 12.2616L60.0833 8.24829L57.1666 5.40746L61.1975 4.81829L63 1.16663Z" fill="#FDB022"/>
</g>
<defs>
<clipPath id="clip0_19_214">
<rect width="7" height="14" fill="white" transform="translate(56)"/>
</clipPath>
</defs>
</svg>
